<?xml version="1.0" standalone="no"?>
<!DOCTYPE svg PUBLIC "-//W3C//DTD SVG 20010904//EN"
 "http://www.w3.org/TR/2001/REC-SVG-20010904/DTD/svg10.dtd">
<svg version="1.0" xmlns="http://www.w3.org/2000/svg"
 width="300.000000pt" height="200.000000pt" viewBox="0 0 300.000000 200.000000"
 preserveAspectRatio="xMidYMid meet">
<metadata>
Created by potrace 1.10, written by Peter Selinger 2001-2011
</metadata>
<g transform="translate(0.000000,200.000000) scale(0.100000,-0.100000)"
fill="#000000" stroke="none">
<path d="M478 1501 c-74 -24 -116 -51 -168 -107 -126 -136 -138 -353 -28 -506
l22 -31 -49 -43 c-45 -40 -48 -45 -37 -68 20 -44 119 -47 188 -6 29 16 36 17
85 4 29 -8 74 -14 99 -14 l45 0 2 -43 c2 -51 25 -112 56 -146 67 -72 213 -66
253 11 8 16 18 61 21 99 8 91 -6 109 -83 109 -46 0 -56 -3 -70 -25 -11 -17
-15 -37 -11 -63 l5 -37 -14 30 c-17 36 -9 112 13 138 12 12 31 17 68 17 35 0
57 5 65 15 12 14 13 32 9 125 -1 14 4 45 11 70 20 75 8 186 -27 263 -82 173
-282 266 -455 208z m227 -52 c161 -60 256 -246 210 -414 -16 -62 -18 -65 -44
-59 -14 4 -27 7 -28 8 -1 1 5 22 13 46 33 94 -4 232 -78 295 -116 99 -290 88
-388 -22 -157 -179 -34 -460 203 -466 53 -2 58 -3 53 -22 -3 -11 -6 -26 -6
-34 0 -17 -103 -10 -166 12 -37 14 -42 13 -65 -4 -29 -22 -113 -43 -136 -35
-14 6 -12 10 13 25 16 10 38 34 49 54 l19 36 -21 23 c-12 13 -34 48 -50 78
-25 49 -28 65 -28 150 0 77 4 104 22 143 79 170 260 249 428 186z m-6 -125
c95 -48 145 -154 121 -259 -14 -64 -25 -82 -62 -101 -17 -9 -46 -31 -65 -50
-29 -29 -40 -34 -82 -34 -161 0 -273 131 -241 283 31 153 190 230 329 161z
m209 -396 c16 -16 15 -55 0 -64 -7 -4 -31 -7 -54 -5 -32 2 -48 -3 -70 -22 -25
-22 -29 -33 -32 -94 -3 -51 0 -78 12 -101 26 -51 94 -58 107 -10 5 21 3 27
-13 31 -15 4 -19 13 -16 34 3 30 23 39 65 28 25 -6 26 -7 20 -78 -6 -88 -31
-117 -103 -117 -63 0 -98 21 -124 75 -48 100 -15 264 63 314 36 23 125 29 145
9z"/>
<path d="M502 1218 c-21 -21 -7 -68 20 -68 17 0 29 40 18 60 -12 23 -21 25
-38 8z"/>
<path d="M674 1217 c-9 -25 0 -62 15 -62 22 0 38 32 25 52 -14 23 -33 28 -40
10z"/>
<path d="M455 1120 c-9 -14 5 -80 23 -112 18 -32 80 -68 116 -68 68 0 127 49
147 123 15 55 4 62 -65 42 -61 -18 -119 -14 -168 11 -32 17 -45 17 -53 4z
m170 -68 c36 1 65 -1 65 -5 0 -4 -11 -19 -25 -32 -36 -37 -97 -35 -136 4 -38
39 -38 53 1 40 16 -6 59 -9 95 -7z"/>
<path d="M1011 956 c-8 -9 -11 -78 -9 -227 l3 -214 40 0 40 0 0 78 c-1 101 13
100 65 -3 22 -45 47 -83 55 -86 19 -8 69 18 73 36 1 8 -18 43 -43 78 l-46 63
30 30 c77 77 58 206 -35 245 -44 19 -158 19 -173 0z m83 -34 c3 -5 -6 -19 -19
-30 -21 -18 -25 -31 -25 -76 0 -47 4 -57 32 -85 18 -17 26 -31 18 -31 -8 0
-24 -10 -37 -22 l-23 -21 -1 24 c-3 131 -1 227 5 237 8 14 42 16 50 4z m120
-45 c6 -9 7 -19 4 -23 -7 -7 -57 45 -58 60 0 12 41 -17 54 -37z m-54 -17 c27
-27 25 -56 -5 -85 -13 -14 -33 -25 -45 -25 -18 0 -20 6 -20 65 0 63 1 65 25
65 14 0 34 -9 45 -20z m27 -130 c-14 -16 -27 -35 -29 -41 -6 -17 -38 -4 -38
15 0 7 11 16 23 20 13 3 32 17 43 31 10 14 20 21 22 15 2 -6 -8 -23 -21 -40z"/>
<path d="M1383 949 c-33 -16 -48 -33 -70 -77 -23 -48 -27 -69 -27 -141 0 -139
47 -209 146 -219 97 -9 159 63 166 196 7 126 -31 218 -104 248 -45 19 -61 18
-111 -7z m22 -49 c-3 -5 -20 -19 -38 -32 -28 -20 -30 -20 -17 -3 18 25 41 45
53 45 4 0 6 -4 2 -10z m79 -45 c34 -35 35 -197 2 -234 -23 -25 -58 -27 -80 -6
-39 39 -45 160 -11 224 12 24 22 31 45 31 16 0 35 -7 44 -15z m-73 -288 c10
-4 10 -6 -3 -6 -20 -1 -58 33 -58 50 0 7 10 1 23 -13 13 -14 30 -28 38 -31z"/>
<path d="M1611 961 c-11 -7 -8 -43 22 -216 20 -114 41 -213 48 -221 15 -18 73
-18 88 -1 6 8 16 48 23 90 6 43 15 77 18 77 4 0 13 -33 20 -72 17 -99 23 -108
70 -108 27 0 42 5 48 18 15 27 76 407 69 425 -9 24 -73 23 -85 0 -5 -10 -12
-58 -16 -108 -9 -118 -18 -187 -23 -181 -3 2 -13 48 -23 100 -11 53 -22 101
-25 106 -3 6 -20 10 -36 10 -36 0 -44 -16 -61 -135 -6 -47 -15 -85 -18 -85 -3
0 -11 66 -18 147 -8 94 -17 150 -25 155 -16 10 -59 10 -76 -1z m59 -97 c0 -13
-5 -24 -12 -24 -6 0 -9 3 -6 6 4 3 2 19 -2 36 -8 25 -7 28 5 18 8 -7 15 -23
15 -36z m165 -100 c3 -26 9 -53 12 -60 4 -12 0 -12 -21 -5 -21 9 -28 7 -41
-12 -19 -27 -20 -10 -3 65 19 83 41 88 53 12z m-115 -106 c17 -11 22 -10 31 2
8 11 9 2 5 -35 -11 -92 -51 -93 -62 -1 -7 50 -4 53 26 34z m200 -87 c-6 -12
-16 -18 -25 -15 -15 6 -19 16 -30 72 -6 31 -5 32 18 27 16 -4 28 -2 33 7 13
20 17 -67 4 -91z"/>
<path d="M2076 957 c-17 -13 -19 -32 -24 -209 -5 -238 -5 -238 79 -238 143 0
218 79 219 228 0 105 -33 172 -103 208 -42 22 -148 29 -171 11z m69 -37 c4 -6
-4 -22 -18 -36 l-25 -24 -5 22 c-10 35 30 66 48 38z m98 -21 c24 -11 54 -49
39 -49 -5 0 -17 10 -28 21 -10 12 -28 25 -39 30 -11 4 -15 8 -8 8 7 1 23 -4
36 -10z m-10 -60 c23 -25 27 -38 27 -89 0 -71 -15 -107 -51 -126 -62 -32 -64
-28 -62 118 1 73 2 134 2 136 3 12 61 -16 84 -39z m66 -181 c-14 -43 -68 -97
-99 -99 -32 -2 -38 -4 -44 -10 -4 -3 -18 -4 -31 -1 -27 5 -42 39 -31 69 6 14
9 14 22 -6 22 -31 53 -40 91 -27 39 14 93 80 94 115 0 14 3 20 6 12 3 -7 0
-31 -8 -53z"/>
<path d="M2397 964 c-4 -4 -7 -81 -7 -171 0 -182 7 -212 59 -256 27 -22 42
-27 88 -27 49 0 59 4 88 33 46 46 55 89 55 258 0 161 -4 173 -57 167 l-28 -3
-5 -168 c-5 -152 -7 -170 -24 -183 -25 -18 -37 -18 -62 0 -17 13 -19 31 -24
183 l-5 168 -35 3 c-20 2 -39 0 -43 -4z m240 -206 c-2 -24 -4 -5 -4 42 0 47 2
66 4 43 2 -24 2 -62 0 -85z m-6 -126 c-14 -51 -40 -73 -95 -79 -39 -5 -48 -2
-69 21 -29 31 -38 58 -26 77 7 11 9 9 9 -7 0 -23 44 -69 76 -78 14 -4 30 1 48
15 25 20 58 70 55 86 -3 16 3 28 7 16 3 -6 0 -29 -5 -51z"/>
</g>
</svg>
